<?xml version="1.0" encoding="UTF-8" standalone="no"?>
<!DOCTYPE svg PUBLIC "-//W3C//DTD SVG 1.0//EN" "http://www.w3.org/TR/2001/PR-SVG-20010719/DTD/svg10.dtd">
<svg width="31cm" height="18cm" viewBox="572 98 604 342" xmlns="http://www.w3.org/2000/svg" xmlns:xlink="http://www.w3.org/1999/xlink">
  <g>
    <rect style="fill: #ffffff" x="573.091" y="99.3444" width="601.702" height="339.5"/>
    <rect style="fill: none; fill-opacity:0; stroke-width: 2; stroke: #000000" x="573.091" y="99.3444" width="601.702" height="339.5"/>
    <text font-size="28.2222" style="fill: #000000;text-anchor:middle;font-family:monospace;font-style:normal;font-weight:normal" x="873.941" y="129.944">
      <tspan x="873.941" y="129.944">System in Time      </tspan>
      <tspan x="873.941" y="165.222"></tspan>
      <tspan x="873.941" y="200.5"></tspan>
      <tspan x="873.941" y="235.778"></tspan>
      <tspan x="873.941" y="271.055"></tspan>
      <tspan x="873.941" y="306.333"></tspan>
      <tspan x="873.941" y="341.611"></tspan>
      <tspan x="873.941" y="376.889"></tspan>
      <tspan x="873.941" y="412.167"></tspan>
    </text>
  </g>
  <g>
    <line style="fill: none; fill-opacity:0; stroke-width: 2; stroke: #000000" x1="587.384" y1="202.075" x2="1148.85" y2="202.075"/>
    <polygon style="fill: #ffffff" points="1148.85,207.075 1158.85,202.075 1148.85,197.075 "/>
    <polygon style="fill: none; fill-opacity:0; stroke-width: 2; stroke: #000000" points="1148.85,207.075 1158.85,202.075 1148.85,197.075 "/>
  </g>
  <text font-size="12.7998" style="fill: #000000;text-anchor:start;font-family:sans-serif;font-style:normal;font-weight:normal" x="1096.79" y="225.141">
    <tspan x="1096.79" y="225.141">Time</tspan>
  </text>
  <g>
    <line style="fill: none; fill-opacity:0; stroke-width: 2; stroke: #000000" x1="791.611" y1="189.179" x2="791.604" y2="348.112"/>
    <polygon style="fill: #ffffff" points="786.604,348.112 791.603,358.112 796.604,348.112 "/>
    <polygon style="fill: none; fill-opacity:0; stroke-width: 2; stroke: #000000" points="786.604,348.112 791.603,358.112 796.604,348.112 "/>
  </g>
  <g>
    <line style="fill: none; fill-opacity:0; stroke-width: 2; stroke: #000000" x1="1028.89" y1="187.783" x2="1028.89" y2="346.716"/>
    <polygon style="fill: #ffffff" points="1023.89,346.716 1028.89,356.716 1033.89,346.716 "/>
    <polygon style="fill: none; fill-opacity:0; stroke-width: 2; stroke: #000000" points="1023.89,346.716 1028.89,356.716 1033.89,346.716 "/>
  </g>
  <g>
    <line style="fill: none; fill-opacity:0; stroke-width: 2; stroke: #000000" x1="653.71" y1="187.968" x2="653.702" y2="346.901"/>
    <polygon style="fill: #ffffff" points="648.702,346.901 653.702,356.901 658.702,346.902 "/>
    <polygon style="fill: none; fill-opacity:0; stroke-width: 2; stroke: #000000" points="648.702,346.901 653.702,356.901 658.702,346.902 "/>
  </g>
  <g>
    <line style="fill: none; fill-opacity:0; stroke-width: 2; stroke: #000000" x1="722.629" y1="188.623" x2="722.622" y2="347.556"/>
    <polygon style="fill: #ffffff" points="717.622,347.556 722.621,357.556 727.622,347.557 "/>
    <polygon style="fill: none; fill-opacity:0; stroke-width: 2; stroke: #000000" points="717.622,347.556 722.621,357.556 727.622,347.557 "/>
  </g>
  <g>
    <line style="fill: none; fill-opacity:0; stroke-width: 2; stroke: #000000" x1="920.358" y1="188.226" x2="920.351" y2="347.159"/>
    <polygon style="fill: #ffffff" points="915.351,347.158 920.35,357.159 925.351,347.159 "/>
    <polygon style="fill: none; fill-opacity:0; stroke-width: 2; stroke: #000000" points="915.351,347.158 920.35,357.159 925.351,347.159 "/>
  </g>
  <g>
    <rect style="fill: #ffffff" x="619.937" y="365.095" width="454.057" height="57.2778"/>
    <rect style="fill: none; fill-opacity:0; stroke-width: 2; stroke: #000000" x="619.937" y="365.095" width="454.057" height="57.2778"/>
    <text font-size="28.2222" style="fill: #000000;text-anchor:middle;font-family:monospace;font-style:normal;font-weight:normal" x="846.965" y="395.695">
      <tspan x="846.965" y="395.695">Changes</tspan>
    </text>
  </g>
</svg>
