<svg xmlns="http://www.w3.org/2000/svg" width="60" height="26" viewBox="0 0 60 26">
    <g fill="none" fill-rule="nonzero">
        <path fill="#EEE" d="M60 11.257h-4.603v8.992c0 2.074.73 2.912 2.447 2.912.62 0 1.425-.146 2.01-.438l.11 2.804c-.804.29-1.864.473-2.922.473-3.25 0-5.04-1.82-5.04-5.391v-9.355H48.68V8.452h3.324V3.5h3.395v4.952H60v2.802M44.912 25.705H41.48V8.451h3.432v17.254M43.195 4.41c-1.241 0-2.263-.983-2.263-2.184 0-1.238 1.022-2.22 2.263-2.22 1.242 0 2.302.947 2.302 2.22 0 1.238-1.06 2.184-2.302 2.184M25.432 15.835h.11l7.266-7.384h4.349l-7.882 7.826 8.773 9.427h-4.69l-7.817-8.811h-.109v8.811H22V0h3.432v15.834"/>
        <path fill="#0663CD" d="M12.665 25.546c-.076-.838-.15-2.024-.15-2.722h-.075C11.54 24.569 9.217 26 6.632 26 2.062 26 0 22.963 0 19.263V9h3.523v9.145c0 2.723.787 5.097 4.046 5.097 2.81 0 4.759-2.164 4.759-5.445V9h3.522v12.985c0 .873.037 2.479.15 3.56h-3.335"/>
    </g>
</svg>
